<svg width="1665" height="1065" viewBox="0 0 1665 1065" fill="none" xmlns="http://www.w3.org/2000/svg">
<g filter="url(#filter0_d_71_186)">
<path d="M4 16.1374C4 7.22498 22.5466 0 45.425 0H1619.57C1642.45 0 1661 7.22496 1661 16.1374V1040.86C1661 1049.78 1642.45 1057 1619.57 1057H45.425C22.5466 1057 4 1049.78 4 1040.86V16.1374Z" fill="url(#paint0_linear_71_186)" fill-opacity="0.97" shape-rendering="crispEdges"/>
</g>
<mask id="mask0_71_186" style="mask-type:alpha" maskUnits="userSpaceOnUse" x="8" y="882" width="440" height="170">
<path d="M8.14246 885.288C8.14246 883.868 13.0573 882.716 19.1201 882.716H436.27C442.333 882.716 447.247 883.868 447.247 885.288V1048.63C447.247 1050.05 442.333 1051.21 436.27 1051.21H19.1201C13.0573 1051.21 8.14246 1050.05 8.14246 1048.63V885.288Z" fill="url(#paint1_linear_71_186)" fill-opacity="0.97"/>
</mask>
<g mask="url(#mask0_71_186)">
<path d="M211 1090C211 1191.62 42.2113 1274 -166 1274C-374.211 1274 -543 1191.62 -543 1090C-543 988.38 -374.211 906 -166 906C42.2113 906 211 988.38 211 1090Z" fill="url(#paint2_linear_71_186)"/>
</g>
<mask id="mask1_71_186" style="mask-type:alpha" maskUnits="userSpaceOnUse" x="1401" y="0" width="260" height="169">
<path d="M1661 165.919C1661 167.34 1658.09 168.491 1654.5 168.491L1407.5 168.491C1403.91 168.491 1401 167.34 1401 165.919L1401 2.57292C1401 1.15224 1403.91 0.000546015 1407.5 0.000546137L1654.5 0.000554549C1658.09 0.000554671 1661 1.15225 1661 2.57293L1661 165.919Z" fill="url(#paint3_linear_71_186)" fill-opacity="0.97"/>
</mask>
<g mask="url(#mask1_71_186)">
<path d="M1427.98 -38.7291C1427.98 -140.331 1553.17 -222.696 1707.6 -222.696C1862.04 -222.696 1987.23 -140.331 1987.23 -38.7291C1987.23 62.8727 1862.04 145.237 1707.6 145.237C1553.17 145.237 1427.98 62.8727 1427.98 -38.7291Z" fill="url(#paint4_linear_71_186)"/>
</g>
<defs>
<filter id="filter0_d_71_186" x="0" y="0" width="1665" height="1065" filterUnits="userSpaceOnUse" color-interpolation-filters="sRGB">
<feFlood flood-opacity="0" result="BackgroundImageFix"/>
<feColorMatrix in="SourceAlpha" type="matrix" values="0 0 0 0 0 0 0 0 0 0 0 0 0 0 0 0 0 0 127 0" result="hardAlpha"/>
<feOffset dy="4"/>
<feGaussianBlur stdDeviation="2"/>
<feComposite in2="hardAlpha" operator="out"/>
<feColorMatrix type="matrix" values="0 0 0 0 0 0 0 0 0 0 0 0 0 0 0 0 0 0 0.25 0"/>
<feBlend mode="normal" in2="BackgroundImageFix" result="effect1_dropShadow_71_186"/>
<feBlend mode="normal" in="SourceGraphic" in2="effect1_dropShadow_71_186" result="shape"/>
</filter>
<linearGradient id="paint0_linear_71_186" x1="57.8525" y1="20.9786" x2="285.926" y2="1143.62" gradientUnits="userSpaceOnUse">
<stop stop-color="#3795FF" stop-opacity="0.67"/>
<stop offset="0.556884" stop-color="#CEE5FF" stop-opacity="0.74"/>
<stop offset="1" stop-color="#CEE5FF" stop-opacity="0.66"/>
</linearGradient>
<linearGradient id="paint1_linear_71_186" x1="22.4134" y1="886.06" x2="44.85" y2="1069.66" gradientUnits="userSpaceOnUse">
<stop stop-color="#F88379"/>
<stop offset="0.556884" stop-color="#F88379" stop-opacity="0.74"/>
<stop offset="1" stop-color="#F88379" stop-opacity="0.66"/>
</linearGradient>
<linearGradient id="paint2_linear_71_186" x1="-166" y1="906" x2="-166" y2="1274" gradientUnits="userSpaceOnUse">
<stop offset="0.716346" stop-color="#CEE5FF"/>
<stop offset="1" stop-color="#EBE2E2"/>
</linearGradient>
<linearGradient id="paint3_linear_71_186" x1="1652.55" y1="165.147" x2="1615.66" y2="-13.5798" gradientUnits="userSpaceOnUse">
<stop stop-color="#F88379"/>
<stop offset="0.556884" stop-color="#F88379" stop-opacity="0.74"/>
<stop offset="1" stop-color="#F88379" stop-opacity="0.66"/>
</linearGradient>
<linearGradient id="paint4_linear_71_186" x1="1707.6" y1="145.237" x2="1707.6" y2="-222.696" gradientUnits="userSpaceOnUse">
<stop stop-color="#CEE5FF"/>
<stop offset="1" stop-color="#EBE2E2"/>
</linearGradient>
</defs>
</svg>
