<svg width="1404" height="994" viewBox="0 0 1404 994" fill="none" xmlns="http://www.w3.org/2000/svg">
<g filter="url(#filter0_d_223_283)">
<path d="M4 15.0535C4 6.73967 19.6253 0 38.9 0H1365.1C1384.37 0 1400 6.73965 1400 15.0534V970.947C1400 979.26 1384.37 986 1365.1 986H38.9C19.6252 986 4 979.26 4 970.947V15.0535Z" fill="url(#paint0_linear_223_283)" fill-opacity="0.97" shape-rendering="crispEdges"/>
</g>
<mask id="mask0_223_283" style="mask-type:alpha" maskUnits="userSpaceOnUse" x="7" y="823" width="208" height="158">
<path d="M7.48999 825.821C7.48999 824.496 9.81263 823.422 12.6777 823.422H209.812C212.677 823.422 215 824.496 215 825.821V978.195C215 979.52 212.677 980.595 209.812 980.595H12.6777C9.81262 980.595 7.48999 979.52 7.48999 978.195V825.821Z" fill="url(#paint1_linear_223_283)" fill-opacity="0.97"/>
</mask>
<g mask="url(#mask0_223_283)">
<path d="M193.466 1016.72C193.466 1111.5 93.5488 1188.33 -29.7052 1188.33C-152.959 1188.33 -252.876 1111.5 -252.876 1016.72C-252.876 921.946 -152.959 845.114 -29.7052 845.114C93.5488 845.114 193.466 921.946 193.466 1016.72Z" fill="url(#paint2_linear_223_283)"/>
</g>
<mask id="mask1_223_283" style="mask-type:alpha" maskUnits="userSpaceOnUse" x="1229" y="0" width="171" height="158">
<path d="M1400 154.774C1400 156.099 1398.09 157.173 1395.72 157.173L1233.27 157.173C1230.91 157.173 1229 156.099 1229 154.774L1229 2.39998C1229 1.07472 1230.91 0.000392424 1233.28 0.000392513L1395.73 0.000398639C1398.09 0.000398728 1400 1.07473 1400 2.39999L1400 154.774Z" fill="url(#paint3_linear_223_283)" fill-opacity="0.97"/>
</mask>
<g mask="url(#mask1_223_283)">
<path d="M1246.75 -36.1277C1246.75 -130.905 1329.08 -207.737 1430.65 -207.737C1532.22 -207.737 1614.56 -130.905 1614.56 -36.1277C1614.56 58.6494 1532.22 135.481 1430.65 135.481C1329.08 135.481 1246.75 58.6494 1246.75 -36.1277Z" fill="url(#paint4_linear_223_283)"/>
</g>
<defs>
<filter id="filter0_d_223_283" x="0" y="0" width="1404" height="994" filterUnits="userSpaceOnUse" color-interpolation-filters="sRGB">
<feFlood flood-opacity="0" result="BackgroundImageFix"/>
<feColorMatrix in="SourceAlpha" type="matrix" values="0 0 0 0 0 0 0 0 0 0 0 0 0 0 0 0 0 0 127 0" result="hardAlpha"/>
<feOffset dy="4"/>
<feGaussianBlur stdDeviation="2"/>
<feComposite in2="hardAlpha" operator="out"/>
<feColorMatrix type="matrix" values="0 0 0 0 0 0 0 0 0 0 0 0 0 0 0 0 0 0 0.25 0"/>
<feBlend mode="normal" in2="BackgroundImageFix" result="effect1_dropShadow_223_283"/>
<feBlend mode="normal" in="SourceGraphic" in2="effect1_dropShadow_223_283" result="shape"/>
</filter>
<linearGradient id="paint0_linear_223_283" x1="49.37" y1="19.5695" x2="282.846" y2="1057.5" gradientUnits="userSpaceOnUse">
<stop stop-color="#3795FF" stop-opacity="0.67"/>
<stop offset="0.556884" stop-color="#CEE5FF" stop-opacity="0.74"/>
<stop offset="1" stop-color="#CEE5FF" stop-opacity="0.66"/>
</linearGradient>
<linearGradient id="paint1_linear_223_283" x1="14.2341" y1="826.541" x2="53.8587" y2="990.806" gradientUnits="userSpaceOnUse">
<stop stop-color="#F88379"/>
<stop offset="0.556884" stop-color="#F88379" stop-opacity="0.74"/>
<stop offset="1" stop-color="#F88379" stop-opacity="0.66"/>
</linearGradient>
<linearGradient id="paint2_linear_223_283" x1="-29.7052" y1="845.114" x2="-29.7052" y2="1188.33" gradientUnits="userSpaceOnUse">
<stop offset="0.716346" stop-color="#CEE5FF"/>
<stop offset="1" stop-color="#EBE2E2"/>
</linearGradient>
<linearGradient id="paint3_linear_223_283" x1="1394.44" y1="154.054" x2="1347.58" y2="-6.05024" gradientUnits="userSpaceOnUse">
<stop stop-color="#F88379"/>
<stop offset="0.556884" stop-color="#F88379" stop-opacity="0.74"/>
<stop offset="1" stop-color="#F88379" stop-opacity="0.66"/>
</linearGradient>
<linearGradient id="paint4_linear_223_283" x1="1430.65" y1="135.481" x2="1430.65" y2="-207.737" gradientUnits="userSpaceOnUse">
<stop stop-color="#CEE5FF"/>
<stop offset="1" stop-color="#EBE2E2"/>
</linearGradient>
</defs>
</svg>
